<svg width="259" height="261" viewBox="0 0 259 261" fill="none" xmlns="http://www.w3.org/2000/svg">
<path d="M8.785 44.3283C15.5804 50.9792 26.2796 51.2683 33.5087 45.1958C38.8583 40.5692 43.485 37.8221 46.0875 38.9788C53.3167 41.8704 46.0875 53.8708 41.75 60.9554C38.1354 67.0279 0.39917 117.198 0.39917 152.188C0.39917 170.694 7.33917 186.02 19.7733 195.273C30.6171 203.37 44.9308 205.828 57.9433 201.924C73.4137 197.442 86.1371 181.682 102.186 161.875C119.68 140.332 143.103 112.138 161.176 112.138C184.743 112.138 185.032 126.741 186.622 138.018C131.97 147.272 108.837 191.08 108.837 215.66C108.837 240.239 129.657 260.336 155.248 260.336C178.815 260.336 217.274 241.106 223.058 172.14H240.552C250.528 172.14 258.625 164.043 258.625 154.067C258.625 144.091 250.528 135.994 240.552 135.994H222.913C220.744 112.138 207.153 75.2692 164.646 75.2692C132.115 75.2692 104.21 102.885 93.2217 116.331C84.8358 126.885 63.4375 152.188 60.1121 155.657C56.4975 159.995 50.2804 167.802 44.0633 167.802C37.5571 167.802 33.6533 155.802 38.8583 140.042C43.9188 124.283 59.1 98.6917 65.6063 89.1492C76.8838 72.6667 84.4021 61.3892 84.4021 41.7258C84.4021 10.3513 60.6904 0.375 48.1117 0.375C32.3521 0.375 18.6167 9.48375 9.07417 18.0142C1.41125 24.9542 1.41125 37.0992 8.785 44.3283ZM155.682 225.202C151.2 225.202 144.982 221.443 144.982 214.792C144.982 206.117 155.537 182.984 186.478 174.887C182.14 213.78 165.802 225.202 155.682 225.202Z" fill="#DEEDFF"/>
</svg>
