<svg width="289" height="377" viewBox="0 0 289 377" fill="none" xmlns="http://www.w3.org/2000/svg">
<path d="M248.837 119.954C242.422 67.7565 196.223 30.6767 142.61 37.1503C103.4 42.1767 72.5118 70.1124 62.6531 105.968L97.0936 115.886C103.109 93.3755 122.099 75.9996 147.213 72.9747C180.637 68.6132 208.958 91.6869 213.137 124.126C217.192 156.995 194.176 186.732 161.861 190.48C128.561 194.411 103.225 216.02 94.671 245.725L91.9438 255.196L126.815 265.238L129.542 255.767C133.385 242.421 147.691 228.358 166.464 226.305C212.562 223.262 255.252 172.151 248.837 119.954ZM125.327 270.404L90.4562 260.363L89.7124 262.946L124.583 272.987L125.327 270.404ZM123.096 278.153L88.2248 268.112L87.481 270.695L122.352 280.736L123.096 278.153ZM85.2971 344.658C98.6428 348.501 112.505 340.838 116.348 327.492C120.191 314.146 112.527 300.285 99.1814 296.442C85.8356 292.599 71.9738 300.262 68.1308 313.608C64.2879 326.954 71.9514 340.815 85.2971 344.658Z" fill="#DEEDFF"/>
</svg>
